<svg width="211" height="29" viewBox="0 0 211 29" fill="none" xmlns="http://www.w3.org/2000/svg">
<path d="M14.18 13.24H27.64V14.92C27.64 16.8133 27.32 18.58 26.68 20.22C26.0533 21.86 25.1533 23.3 23.98 24.54C22.8067 25.78 21.4067 26.7467 19.78 27.44C18.1533 28.1333 16.3533 28.48 14.38 28.48C12.34 28.48 10.4867 28.1333 8.82 27.44C7.16667 26.7333 5.74 25.7533 4.54 24.5C3.34 23.2467 2.42 21.7933 1.78 20.14C1.14 18.4733 0.82 16.6867 0.82 14.78C0.82 12.8867 1.14 11.1133 1.78 9.46C2.42 7.79333 3.34 6.34 4.54 5.1C5.74 3.84666 7.16667 2.87333 8.82 2.18C10.4867 1.47333 12.34 1.12 14.38 1.12C16.0467 1.12 17.5133 1.3 18.78 1.66C20.06 2.02 21.16 2.5 22.08 3.1C23 3.7 23.78 4.36 24.42 5.08C25.06 5.78667 25.5933 6.48 26.02 7.16L20.34 9.84C19.7933 9 19.0467 8.26667 18.1 7.64C17.1667 7.01333 15.9267 6.7 14.38 6.7C13.3 6.7 12.3067 6.91333 11.4 7.34C10.5067 7.76667 9.73333 8.35333 9.08 9.1C8.42667 9.83333 7.92 10.6933 7.56 11.68C7.21333 12.6533 7.04 13.6867 7.04 14.78C7.04 15.8867 7.21333 16.9267 7.56 17.9C7.92 18.8733 8.42667 19.7333 9.08 20.48C9.73333 21.2267 10.5067 21.8133 11.4 22.24C12.3067 22.6533 13.3 22.86 14.38 22.86C15.3267 22.86 16.1867 22.74 16.96 22.5C17.7333 22.26 18.4 21.9133 18.96 21.46C19.5333 21.0067 19.98 20.4733 20.3 19.86C20.6333 19.2333 20.8333 18.5467 20.9 17.8H14.18V13.24ZM35.9341 21.08C35.9741 21.6667 36.1607 22.1867 36.4941 22.64C36.8274 23.0933 37.2874 23.4533 37.8741 23.72C38.4741 23.9733 39.1807 24.1 39.9941 24.1C40.7674 24.1 41.4607 24.02 42.0741 23.86C42.7007 23.7 43.2407 23.5 43.6941 23.26C44.1607 23.02 44.5207 22.7733 44.7741 22.52L47.1341 26.28C46.8007 26.64 46.3274 26.9933 45.7141 27.34C45.1141 27.6733 44.3207 27.9467 43.3341 28.16C42.3474 28.3733 41.1007 28.48 39.5941 28.48C37.7807 28.48 36.1674 28.14 34.7541 27.46C33.3407 26.78 32.2274 25.78 31.4141 24.46C30.6007 23.14 30.1941 21.5267 30.1941 19.62C30.1941 18.02 30.5407 16.58 31.2341 15.3C31.9407 14.0067 32.9607 12.9867 34.2941 12.24C35.6274 11.48 37.2341 11.1 39.1141 11.1C40.9007 11.1 42.4474 11.4267 43.7541 12.08C45.0741 12.7333 46.0874 13.7067 46.7941 15C47.5141 16.28 47.8741 17.88 47.8741 19.8C47.8741 19.9067 47.8674 20.12 47.8541 20.44C47.8541 20.76 47.8407 20.9733 47.8141 21.08H35.9341ZM42.1541 17.9C42.1407 17.4733 42.0274 17.0533 41.8141 16.64C41.6007 16.2133 41.2807 15.8667 40.8541 15.6C40.4274 15.32 39.8807 15.18 39.2141 15.18C38.5474 15.18 37.9807 15.3133 37.5141 15.58C37.0607 15.8333 36.7141 16.1667 36.4741 16.58C36.2341 16.9933 36.1007 17.4333 36.0741 17.9H42.1541ZM58.3759 11.1C59.4559 11.1 60.4426 11.1933 61.3359 11.38C62.2293 11.5533 62.9759 11.7533 63.5759 11.98C64.1893 12.2067 64.5826 12.3933 64.7559 12.54L62.7759 16.12C62.5226 15.9333 62.0493 15.6933 61.3559 15.4C60.6759 15.1067 59.9159 14.96 59.0759 14.96C58.4359 14.96 57.8959 15.06 57.4559 15.26C57.0159 15.4467 56.7959 15.7467 56.7959 16.16C56.7959 16.5733 57.0359 16.9067 57.5159 17.16C58.0093 17.4 58.7159 17.6133 59.6359 17.8C60.4359 17.96 61.2493 18.2133 62.0759 18.56C62.9026 18.9067 63.5893 19.42 64.1359 20.1C64.6959 20.7667 64.9759 21.66 64.9759 22.78C64.9759 23.9267 64.7293 24.8733 64.2359 25.62C63.7426 26.3667 63.0893 26.9467 62.2759 27.36C61.4626 27.7733 60.5826 28.06 59.6359 28.22C58.6893 28.3933 57.7693 28.48 56.8759 28.48C55.6226 28.48 54.5293 28.3667 53.5959 28.14C52.6759 27.9133 51.9293 27.6533 51.3559 27.36C50.7826 27.0667 50.3826 26.8333 50.1559 26.66L52.1159 22.66C52.4626 22.9533 53.0293 23.2867 53.8159 23.66C54.6026 24.02 55.4359 24.2 56.3159 24.2C57.1693 24.2 57.8293 24.0733 58.2959 23.82C58.7626 23.5667 58.9959 23.2333 58.9959 22.82C58.9959 22.4867 58.8826 22.22 58.6559 22.02C58.4293 21.82 58.1093 21.6467 57.6959 21.5C57.2826 21.3533 56.7826 21.22 56.1959 21.1C55.6626 20.9933 55.0959 20.8267 54.4959 20.6C53.8959 20.3733 53.3293 20.0667 52.7959 19.68C52.2626 19.28 51.8293 18.78 51.4959 18.18C51.1626 17.58 50.9959 16.8533 50.9959 16C50.9959 14.9067 51.3493 14 52.0559 13.28C52.7626 12.56 53.6759 12.02 54.7959 11.66C55.9159 11.2867 57.1093 11.1 58.3759 11.1ZM66.53 11.58H69.33V4.84H75.35V11.58H79.03V16.58H75.35V21.16C75.35 21.84 75.45 22.3933 75.65 22.82C75.85 23.2333 76.2167 23.44 76.75 23.44C77.11 23.44 77.4167 23.36 77.67 23.2C77.9233 23.04 78.0767 22.9333 78.13 22.88L80.21 27.2C80.1167 27.28 79.8233 27.4267 79.33 27.64C78.85 27.8533 78.2367 28.0467 77.49 28.22C76.7433 28.3933 75.91 28.48 74.99 28.48C73.35 28.48 71.9967 28.02 70.93 27.1C69.8633 26.1667 69.33 24.7333 69.33 22.8V16.58H66.53V11.58ZM95.2013 28V25.34C95.0813 25.6067 94.7746 25.9933 94.2813 26.5C93.8013 27.0067 93.1613 27.4667 92.3613 27.88C91.5613 28.28 90.6279 28.48 89.5613 28.48C87.9613 28.48 86.5613 28.0933 85.3613 27.32C84.1613 26.5333 83.2279 25.4867 82.5613 24.18C81.8946 22.86 81.5613 21.4 81.5613 19.8C81.5613 18.2 81.8946 16.7467 82.5613 15.44C83.2279 14.12 84.1613 13.0667 85.3613 12.28C86.5613 11.4933 87.9613 11.1 89.5613 11.1C90.5879 11.1 91.4879 11.2667 92.2613 11.6C93.0346 11.92 93.6613 12.3067 94.1413 12.76C94.6213 13.2 94.9546 13.6067 95.1413 13.98V11.58H101.181V28H95.2013ZM87.5213 19.8C87.5213 20.5467 87.6946 21.22 88.0413 21.82C88.3879 22.4067 88.8479 22.8667 89.4213 23.2C90.0079 23.5333 90.6546 23.7 91.3613 23.7C92.0946 23.7 92.7413 23.5333 93.3013 23.2C93.8613 22.8667 94.3013 22.4067 94.6213 21.82C94.9546 21.22 95.1213 20.5467 95.1213 19.8C95.1213 19.0533 94.9546 18.3867 94.6213 17.8C94.3013 17.2 93.8613 16.7333 93.3013 16.4C92.7413 16.0533 92.0946 15.88 91.3613 15.88C90.6546 15.88 90.0079 16.0533 89.4213 16.4C88.8479 16.7333 88.3879 17.2 88.0413 17.8C87.6946 18.3867 87.5213 19.0533 87.5213 19.8ZM84.5613 8.4C84.6946 7.61333 84.9413 6.8 85.3013 5.96C85.6613 5.12 86.1413 4.40666 86.7413 3.82C87.3546 3.23333 88.0813 2.94 88.9213 2.94C89.7613 2.94 90.5013 3.06667 91.1413 3.32C91.7813 3.56 92.3813 3.80667 92.9413 4.06C93.5013 4.3 94.0746 4.42 94.6613 4.42C95.0479 4.42 95.3613 4.25333 95.6013 3.92C95.8546 3.57333 96.0279 3.24667 96.1213 2.94H99.3413C99.2213 3.72667 98.9746 4.54 98.6013 5.38C98.2413 6.22 97.7613 6.93333 97.1613 7.52C96.5613 8.10667 95.8346 8.4 94.9813 8.4C94.1546 8.4 93.4213 8.28 92.7813 8.04C92.1413 7.78667 91.5346 7.54 90.9613 7.3C90.4013 7.06 89.8279 6.94 89.2413 6.94C88.8679 6.94 88.5546 7.10667 88.3013 7.44C88.0613 7.77333 87.8946 8.09333 87.8013 8.4H84.5613ZM113.399 28.48C111.599 28.48 109.999 28.1133 108.599 27.38C107.213 26.6333 106.119 25.6133 105.319 24.32C104.533 23.0133 104.139 21.52 104.139 19.84C104.139 18.16 104.533 16.6667 105.319 15.36C106.119 14.04 107.213 13 108.599 12.24C109.999 11.48 111.599 11.1 113.399 11.1C115.199 11.1 116.786 11.48 118.159 12.24C119.533 13 120.606 14.04 121.379 15.36C122.153 16.6667 122.539 18.16 122.539 19.84C122.539 21.52 122.153 23.0133 121.379 24.32C120.606 25.6133 119.533 26.6333 118.159 27.38C116.786 28.1133 115.199 28.48 113.399 28.48ZM113.399 23.48C114.093 23.48 114.693 23.3267 115.199 23.02C115.706 22.7133 116.099 22.28 116.379 21.72C116.659 21.16 116.799 20.5267 116.799 19.82C116.799 19.1 116.659 18.46 116.379 17.9C116.099 17.34 115.706 16.9 115.199 16.58C114.693 16.26 114.093 16.1 113.399 16.1C112.706 16.1 112.099 16.26 111.579 16.58C111.073 16.9 110.673 17.34 110.379 17.9C110.099 18.46 109.959 19.1 109.959 19.82C109.959 20.5267 110.099 21.16 110.379 21.72C110.673 22.28 111.073 22.7133 111.579 23.02C112.099 23.3267 112.706 23.48 113.399 23.48ZM136.429 1.6H151.689V6.84H142.409V12.16H150.989V17.38H142.409V28H136.429V1.6ZM166.998 28V25.34C166.878 25.6067 166.571 25.9933 166.078 26.5C165.598 27.0067 164.958 27.4667 164.158 27.88C163.358 28.28 162.425 28.48 161.358 28.48C159.758 28.48 158.358 28.0933 157.158 27.32C155.958 26.5333 155.025 25.4867 154.358 24.18C153.691 22.86 153.358 21.4 153.358 19.8C153.358 18.2 153.691 16.7467 154.358 15.44C155.025 14.12 155.958 13.0667 157.158 12.28C158.358 11.4933 159.758 11.1 161.358 11.1C162.385 11.1 163.285 11.2667 164.058 11.6C164.831 11.92 165.458 12.3067 165.938 12.76C166.418 13.2 166.751 13.6067 166.938 13.98V11.58H172.978V28H166.998ZM159.318 19.8C159.318 20.5467 159.491 21.22 159.838 21.82C160.185 22.4067 160.645 22.8667 161.218 23.2C161.805 23.5333 162.451 23.7 163.158 23.7C163.891 23.7 164.538 23.5333 165.098 23.2C165.658 22.8667 166.098 22.4067 166.418 21.82C166.751 21.22 166.918 20.5467 166.918 19.8C166.918 19.0533 166.751 18.3867 166.418 17.8C166.098 17.2 165.658 16.7333 165.098 16.4C164.538 16.0533 163.891 15.88 163.158 15.88C162.451 15.88 161.805 16.0533 161.218 16.4C160.645 16.7333 160.185 17.2 159.838 17.8C159.491 18.3867 159.318 19.0533 159.318 19.8ZM160.858 9.76L159.078 7.3L165.578 1.7L168.458 5.32L160.858 9.76ZM185.736 23.7C186.496 23.7 187.123 23.5733 187.616 23.32C188.11 23.0533 188.443 22.84 188.616 22.68L191.396 26.8C191.183 26.9733 190.816 27.2 190.296 27.48C189.776 27.7467 189.123 27.98 188.336 28.18C187.563 28.38 186.676 28.48 185.676 28.48C183.796 28.48 182.143 28.1267 180.716 27.42C179.29 26.7 178.176 25.6867 177.376 24.38C176.59 23.0733 176.196 21.54 176.196 19.78C176.196 18.0067 176.59 16.4733 177.376 15.18C178.176 13.8867 179.29 12.8867 180.716 12.18C182.143 11.46 183.796 11.1 185.676 11.1C186.663 11.1 187.543 11.2067 188.316 11.42C189.103 11.62 189.763 11.8533 190.296 12.12C190.83 12.3733 191.203 12.5933 191.416 12.78L188.576 16.94C188.483 16.8467 188.31 16.7133 188.056 16.54C187.816 16.3667 187.503 16.2133 187.116 16.08C186.73 15.9467 186.27 15.88 185.736 15.88C185.083 15.88 184.47 16.0467 183.896 16.38C183.336 16.7133 182.883 17.1733 182.536 17.76C182.19 18.3467 182.016 19.02 182.016 19.78C182.016 20.54 182.19 21.22 182.536 21.82C182.883 22.4067 183.336 22.8667 183.896 23.2C184.47 23.5333 185.083 23.7 185.736 23.7ZM193.989 28V11.58H200.069V28H193.989ZM197.109 8.2C196.149 8.2 195.336 7.86667 194.669 7.2C194.003 6.52 193.669 5.71333 193.669 4.78C193.669 3.84667 194.003 3.04 194.669 2.36C195.349 1.66666 196.163 1.32 197.109 1.32C197.736 1.32 198.309 1.48 198.829 1.8C199.349 2.10667 199.769 2.52 200.089 3.04C200.409 3.56 200.569 4.14 200.569 4.78C200.569 5.71333 200.229 6.52 199.549 7.2C198.869 7.86667 198.056 8.2 197.109 8.2ZM210.338 28H204.238V0.479999H210.338V28Z" fill="white"/>
</svg>
